#!OML:ASF F:\VICON\USERDATA\INSTALL\rory3\rory3.ASF
:FULLY-SPECIFIED
:DEGREES
1788
root -4.36872 18.8711 2.5169 3.86467 -8.64241 6.26426
lowerback 8.88155 -0.196471 3.8839
upperback 2.3938 0.0519046 -0.954486
thorax -2.48876 0.0108714 -3.18147
lowerneck -8.24609 -6.35944 -6.08138
upperneck 4.11894 -8.13105 4.63388
head 3.30569 -3.97683 2.14076
rclavicle 1.03368e-014 3.18055e-015
rhumerus 30.4794 -5.49265 -31.6732
rradius 83.0907
rwrist 37.0407
rhand -71.4972 411.631
rfingers 7.12502
rthumb -43.011 27.3886
lclavicle 1.03368e-014 3.18055e-015
lhumerus -31.4889 -1.63572 74.8145
lradius 58.7428
lwrist -5.71518
lhand -36.6142 16.2252
lfingers 7.12502
lthumb -9.70245 45.9818
rfemur -14.5625 19.0963 15.7787
rtibia 28.8555
rfoot -16.9103 -15.1784
rtoes 0.423966
lfemur -8.63772 -3.56488 -8.97543
ltibia 21.0553
lfoot 1.58008 22.5207
ltoes -11.2898
1789
root -4.34826 18.863 2.52073 3.82983 -8.68411 6.17734
lowerback 8.90716 -0.180441 3.8154
upperback 2.32106 0.0685617 -0.974727
thorax -2.57726 0.0163448 -3.16603
lowerneck -8.2456 -6.409 -6.14144
upperneck 4.31545 -8.20182 4.7089
head 3.38622 -4.01033 2.1705
rclavicle -4.94974e-014 -5.56597e-015
rhumerus 29.5088 -4.96535 -31.9718
rradius 83.7375
rwrist 37.2876
rhand -71.0684 403.627
rfingers 7.12502
rthumb -42.6098 19.2447
lclavicle -4.94974e-014 -5.56597e-015
lhumerus -31.4924 -1.73696 74.8603
lradius 58.6824
lwrist -5.59108
lhand -37.1068 15.7987
lfingers 7.12502
lthumb -10.1777 45.5325
rfemur -14.5909 19.1833 15.8198
rtibia 28.9817
rfoot -17.0002 -15.1789
rtoes 0.466761
lfemur -8.58782 -3.56336 -9.0299
ltibia 21.1432
lfoot 1.11729 22.6643
ltoes -9.49592
1790
root -4.32832 18.8553 2.52558 3.78798 -8.74274 6.01186
lowerback 8.89075 -0.153038 3.81606
upperback 2.29458 0.104554 -0.980617
thorax -2.59265 0.0334815 -3.17648
lowerneck -8.16701 -6.49229 -6.24137
upperneck 4.37692 -8.3198 4.86258
head 3.415 -4.0661 2.2339
rclavicle -1.17283e-014 1.74931e-014
rhumerus 28.5572 -4.52215 -32.3458
rradius 84.3794
rwrist 37.4624
rhand -71.0246 404.899
rfingers 7.12502
rthumb -42.5689 20.5029
lclavicle -1.17283e-014 1.74931e-014
lhumerus -31.3939 -1.73747 74.8611
lradius 58.6
lwrist -5.83769
lhand -37.0399 15.8437
lfingers 7.12502
lthumb -10.1131 45.5807
rfemur -14.5868 19.3422 15.9604
rtibia 29.1087
rfoot -17.0327 -15.2736
rtoes 0.244659
lfemur -8.52938 -3.53407 -8.99731
ltibia 21.2861
lfoot 0.69133 22.6935
ltoes -9.87041
1791
root -4.30806 18.8481 2.53608 3.7406 -8.82422 5.92528
lowerback 8.74375 -0.102106 3.76739
upperback 2.35344 0.16002 -1.02245
thorax -2.44559 0.0653139 -3.1973
lowerneck -8.24354 -6.61193 -6.41814
upperneck 4.43416 -8.47206 5.05759
head 3.482 -4.13666 2.31864
rclavicle -3.24019e-014 -2.14687e-014
rhumerus 27.725 -4.25431 -32.8468
rradius 84.9664
rwrist 37.6221
rhand -70.9374 406.374
rfingers 7.12502
rthumb -42.4872 21.949
lclavicle -3.24019e-014 -2.14687e-014
lhumerus -31.17 -1.6391 74.8118
lradius 58.5714
lwrist -6.35514
lhand -36.3519 15.929
lfingers 7.12502
lthumb -9.44935 45.6972
rfemur -14.5809 19.4826 15.9996
rtibia 29.2488
rfoot -17.1276 -15.2899
rtoes 0.196282
lfemur -8.42225 -3.55662 -9.07039
ltibia 21.4368
lfoot 0.379829 22.4779
ltoes -10.5473
1792
root -4.28491 18.8387 2.54771 3.68243 -8.9661 5.89736
lowerback 8.66522 -0.0195962 3.65831
upperback 2.36632 0.255171 -1.07965
thorax -2.38121 0.11456 -3.20454
lowerneck -8.39307 -6.71904 -6.57275
upperneck 4.55741 -8.60652 5.23441
head 3.58353 -4.19744 2.39203
rclavicle -9.93923e-015 -8.74653e-015
rhumerus 26.8743 -3.96578 -33.2749
rradius 85.5428
rwrist 37.6572
rhand -70.6252 404.402
rfingers 7.12502
rthumb -42.1948 19.878
lclavicle -9.93923e-015 -8.74653e-015
lhumerus -31.017 -1.83082 74.8907
lradius 58.4951
lwrist -6.21279
lhand -36.6151 16.1075
lfingers 7.12502
lthumb -9.70325 45.864
rfemur -14.5964 19.5707 15.9664
rtibia 29.3983
rfoot -17.1646 -15.3001
rtoes 0.0406816
lfemur -8.27065 -3.64023 -9.23149
ltibia 21.5904
lfoot -0.192814 22.1206
ltoes -10.1076
1793
root -4.26023 18.8313 2.55571 3.64106 -9.12519 5.89656
lowerback 8.65227 0.0395025 3.52141
upperback 2.35334 0.319386 -1.14725
thorax -2.38281 0.146679 -3.20416
lowerneck -8.62677 -6.8016 -6.6448
upperneck 5.00002 -8.73034 5.56996
head 3.42227 -4.22821 2.24382
rclavicle -1.96797e-014 2.70347e-014
rhumerus 25.8996 -3.6196 -33.5943
rradius 86.217
rwrist 37.6931
rhand -70.5207 405.179
rfingers 7.12502
rthumb -42.0969 20.6216
lclavicle -1.96797e-014 2.70347e-014
lhumerus -30.8792 -1.95951 74.8938
lradius 58.4138
lwrist -6.17247
lhand -36.6823 16.6162
lfingers 7.12502
lthumb -9.76811 46.3696
rfemur -14.6695 19.6723 15.8934
rtibia 29.5948
rfoot -17.2283 -15.3299
rtoes -0.285349
lfemur -8.18812 -3.948 -9.43202
ltibia 21.776
lfoot -0.81661 21.8727
ltoes -9.94986
1794
root -4.23646 18.8229 2.55992 3.62814 -9.24866 5.79919
lowerback 8.62243 0.0610266 3.47746
upperback 2.38289 0.34128 -1.19627
thorax -2.33385 0.159134 -3.23212
lowerneck -8.87523 -6.88106 -6.78807
upperneck 5.13893 -8.82434 5.75216
head 3.52516 -4.26496 2.30362
rclavicle -1.31198e-014 -2.22639e-014
rhumerus 24.8846 -3.31887 -33.9678
rradius 87.0089
rwrist 37.6508
rhand -70.5812 406.469
rfingers 7.12502
rthumb -42.1536 21.9302
lclavicle -1.31198e-014 -2.22639e-014
lhumerus -30.6725 -1.76982 74.7594
lradius 58.3657
lwrist -6.67201
lhand -36.1732 16.9623
lfingers 7.12502
lthumb -9.27692 46.7382
rfemur -14.7677 19.7474 15.9309
rtibia 29.8376
rfoot -17.3719 -15.3072
rtoes -0.292985
lfemur -8.19465 -4.16721 -9.51269
ltibia 22.0457
lfoot -1.24102 21.4869
ltoes -11.4879
1795
root -4.21187 18.8101 2.56007 3.65991 -9.39207 5.65281
lowerback 8.62829 0.103656 3.38396
upperback 2.35536 0.391481 -1.15221
thorax -2.36273 0.183329 -3.13888
lowerneck -8.89154 -6.9176 -6.98237
upperneck 5.0679 -8.85376 5.84659
head 3.52103 -4.27928 2.36053
rclavicle 1.98785e-016 -2.06736e-014
rhumerus 24.0312 -2.94428 -34.2172
rradius 87.7658
rwrist 37.5276
rhand -70.6526 405.239
rfingers 7.12502
rthumb -42.2205 20.7235
lclavicle 1.98785e-016 -2.06736e-014
lhumerus -30.621 -1.67874 74.8299
lradius 58.4491
lwrist -6.68593
lhand -36.2188 16.3838
lfingers 7.12502
lthumb -9.32095 46.1577
rfemur -14.9731 19.8002 15.9978
rtibia 30.1199
rfoot -17.4882 -15.287
rtoes -0.39569
lfemur -8.21483 -4.11754 -9.53007
ltibia 22.3248
lfoot -1.70991 20.7051
ltoes -12.7119
1796
root -4.1851 18.7935 2.55807 3.69583 -9.55651 5.50367
lowerback 8.66909 0.179106 3.28062
upperback 2.29978 0.486271 -1.09189
thorax -2.4371 0.22851 -3.02848
lowerneck -8.87298 -6.98512 -7.1292
upperneck 4.98352 -8.92154 5.80928
head 3.50129 -4.31789 2.36896
rclavicle 9.54166e-015 -2.06736e-014
rhumerus 23.2287 -2.5776 -34.3873
rradius 88.3831
rwrist 37.4772
rhand -70.6291 403.961
rfingers 7.12502
rthumb -42.1985 19.4381
lclavicle 9.54166e-015 -2.06736e-014
lhumerus -30.5432 -1.79611 75.0394
lradius 58.4152
lwrist -6.14357
lhand -37.0156 15.6406
lfingers 7.12502
lthumb -10.0897 45.3787
rfemur -15.231 19.8523 16.0437
rtibia 30.4163
rfoot -17.5603 -15.1979
rtoes -0.500953
lfemur -8.23887 -4.07936 -9.5482
ltibia 22.636
lfoot -2.47211 19.7877
ltoes -12.9571
1797
root -4.1562 18.7812 2.56064 3.64614 -9.73438 5.53136
lowerback 8.68897 0.226526 3.07283
upperback 2.28549 0.531244 -1.10643
thorax -2.46161 0.250907 -2.93126
lowerneck -8.87531 -7.05373 -7.29208
upperneck 4.86146 -8.99039 5.82483
head 3.4769 -4.3547 2.39562
rclavicle 4.81059e-014 -1.98785e-014
rhumerus 22.498 -2.16667 -34.4517
rradius 88.927
rwrist 37.5064
rhand -70.6555 402.619
rfingers 7.12502
rthumb -42.2232 18.1044
lclavicle 4.81059e-014 -1.98785e-014
lhumerus -30.4888 -1.85943 75.1537
lradius 58.3697
lwrist -5.78075
lhand -37.4995 15.67
lfingers 7.12502
lthumb -10.5565 45.3849
rfemur -15.4119 19.884 15.8981
rtibia 30.7273
rfoot -17.6762 -15.0732
rtoes -0.616271
lfemur -8.1987 -4.18423 -9.80598
ltibia 22.9525
lfoot -3.20883 19.0264
ltoes -13.406
1798
root -4.12374 18.7699 2.5636 3.63084 -9.94919 5.47203
lowerback 8.69402 0.274029 2.97194
upperback 2.26508 0.586101 -1.09215
thorax -2.4829 0.277864 -2.86544
lowerneck -8.92102 -7.10022 -7.44012
upperneck 4.7492 -9.02867 5.83973
head 3.45992 -4.37525 2.42042
rclavicle -2.22639e-014 9.54166e-015
rhumerus 21.8001 -1.72228 -34.3946
rradius 89.4933
rwrist 37.6658
rhand -70.6003 403.399
rfingers 7.12502
rthumb -42.1715 18.8664
lclavicle -2.22639e-014 9.54166e-015
lhumerus -30.5108 -1.78668 75.2384
lradius 58.4209
lwrist -5.84785
lhand -37.4181 15.8491
lfingers 7.12502
lthumb -10.478 45.568
rfemur -15.6188 19.8877 15.8297
rtibia 31.0434
rfoot -17.766 -14.9428
rtoes -0.832782
lfemur -8.11106 -4.22387 -10.0078
ltibia 23.2127
lfoot -3.80402 18.3573
ltoes -13.9907
